<svg width="187" height="227" viewBox="0 0 187 227" fill="none" xmlns="http://www.w3.org/2000/svg">
<path d="M132.858 126.863C135.852 126.807 138.874 127.174 141.783 126.213C143.901 126.128 146.076 126.298 148.166 125.93C152.12 125.252 154.831 126.807 157.09 129.86C161.157 135.374 165.309 140.802 169.461 146.259C170.336 147.419 171.296 148.521 172.37 149.511C173.753 150.783 175.589 150.924 177.086 150.105C178.809 149.172 177.34 147.701 177.03 146.542C176.634 145.015 176.013 143.573 175.533 142.075C175.279 141.227 174.205 140.209 175.9 139.643C176.465 139.983 177.03 140.463 177.651 140.605C179.063 140.916 180.814 141.283 181.831 140.378C182.848 139.474 181.52 138.145 181.125 137.042C178.837 130.567 176.408 124.121 174.036 117.646C173.603 114.348 175.024 112.067 178.301 110.804C178.809 110.606 179.261 110.267 179.769 109.984C181.012 109.984 182.254 109.984 183.497 109.899C184.599 109.843 186.18 109.956 186.067 108.514C186.011 107.694 184.627 106.987 183.356 107.043C181.097 107.157 178.95 106.591 176.719 106.167C173.443 105.545 172.963 103.933 173.725 101.191C175.73 94.0092 178.611 87.1387 181.238 80.1833C181.605 79.1937 182.876 78.4303 182.226 77.2145C181.464 75.8008 179.995 76.6208 178.837 76.4794C177.114 76.2815 176.239 77.4973 175.307 78.7131C170.506 84.9899 165.676 91.2384 160.903 97.5152C158.926 100.116 156.525 101.671 153.108 101.191C150.99 100.908 148.9 100.654 146.782 100.456C134.524 99.2682 122.211 99.7488 109.925 99.8336C106.593 99.8336 105.999 98.6744 106.112 95.7622C106.31 90.7012 107.27 85.8098 108.598 81.0032C110.829 72.9735 113.653 65.0851 115.715 57.0553C117.438 50.2413 119.528 43.5404 121.25 36.7547C124.103 25.5017 127.52 14.39 130.683 3.22186C131.559 0.0834598 131.107 -0.482031 127.944 0.337916C123.171 1.55369 119.895 4.579 117.635 8.93318C109.445 24.7383 101.142 40.5151 92.9513 56.3202C92.1323 57.9035 91.3698 58.7234 89.3363 58.1297C84.9587 56.8574 80.4116 56.9422 75.8928 57.1684C74.17 57.2815 74.1418 58.5538 74.1418 59.7978C74.1418 61.9184 74.0853 64.0107 74.057 66.1312C71.0916 66.4139 70.1313 68.1952 70.329 70.966C70.442 72.408 70.329 73.8782 70.329 75.3202C70.329 79.9571 71.148 80.8619 75.7798 80.7205C77.8698 80.664 78.7453 81.3143 78.3499 83.4065C73.1533 96.1298 68.8039 100.201 55.7558 99.8054C46.9724 99.5226 38.1889 99.8054 29.4055 99.7771C21.6952 99.7205 14.4934 101.558 7.71513 105.177C3.36577 107.496 3.13982 108.74 6.72664 111.907C6.303 113.773 4.46723 113.942 3.16807 114.734C1.75594 115.61 -0.108076 116.176 0.00489503 118.268C0.089623 120.247 1.84067 121.067 3.30928 121.774C10.6806 125.337 18.3908 127.485 26.6942 127.372C36.2684 127.259 45.8144 127.457 55.3887 127.316C62.5905 127.203 67.5047 130.652 70.8939 136.646C72.6167 139.671 74.057 142.866 75.6104 145.977C74.3112 146.825 74.0288 148.069 74.1135 149.511C74.283 152.055 74.2265 154.43 71.3457 155.703C70.4137 156.127 70.1031 157.23 70.1031 158.332C70.1031 161.386 70.0466 164.411 70.1031 167.465C70.1596 169.529 71.4305 171.395 73.351 170.886C75.2997 170.377 77.3897 170.688 79.2254 169.783C80.3551 169.698 81.5696 169.84 82.5863 169.444C86.6815 167.889 88.3196 170.122 90.0141 173.43C97.7808 188.529 105.774 203.542 113.71 218.556C115.574 222.118 118.087 225.059 122.154 226.161C123.623 226.557 125.402 227.716 126.588 226.359C127.577 225.256 126.617 223.56 126.193 222.175C125.91 221.213 125.628 220.224 125.402 219.234C125.12 217.905 125.487 217 127.04 216.972C128.198 216.096 131.644 219.291 130.825 215.191C129.356 207.811 127.068 200.63 125.035 193.42C123.453 187.822 121.787 182.139 120.064 176.512C117.918 169.5 116.308 162.262 114.218 155.279C111.789 147.249 109.502 139.163 107.129 131.105C107.016 129.86 106.903 128.616 106.79 127.372C109.389 127.372 111.987 127.429 114.557 127.372C120.601 127.203 126.701 127.91 132.717 126.892L132.858 126.863Z" fill="#2070FA"/>
<path d="M6.7831 111.935C3.22453 108.74 3.42222 107.524 7.77159 105.206C14.5498 101.587 21.7517 99.7489 29.4619 99.8055C38.2454 99.862 47.0288 99.5793 55.8123 99.8338C68.8604 100.23 73.2097 96.1582 78.4064 83.4349C80.9482 79.3352 83.3771 75.1224 85.1281 70.5986C85.5235 70.0614 85.9472 69.5807 86.2861 69.0153C86.8792 68.054 87.5852 66.9513 86.7662 65.9334C85.8624 64.8025 85.0151 66.2727 84.1114 66.3292C80.9765 66.5272 77.7003 67.7712 74.9325 65.1417C75.1302 62.4557 74.2265 59.6566 75.921 57.1685C80.4398 56.9423 84.9869 56.8575 89.3645 58.1581C91.398 58.7519 92.1605 57.9319 92.9796 56.3486C101.198 40.5435 109.473 24.7667 117.664 8.96159C119.923 4.60741 123.199 1.55384 127.972 0.366328C131.135 -0.425337 131.615 0.11188 130.712 3.25028C127.549 14.4185 124.131 25.5301 121.279 36.7831C119.556 43.5971 117.466 50.298 115.743 57.0837C113.71 65.1135 110.885 73.0019 108.626 81.0316C107.27 85.8665 106.338 90.7579 106.141 95.7906C106.028 98.7028 106.621 99.8903 109.953 99.862C122.239 99.7772 134.553 99.3248 146.81 100.484C148.928 100.682 151.046 100.936 153.136 101.219C156.554 101.672 158.954 100.117 160.931 97.5436C165.704 91.2668 170.534 85.0183 175.335 78.7415C176.239 77.554 177.143 76.3099 178.865 76.5078C180.023 76.6492 181.492 75.8293 182.254 77.243C182.904 78.4587 181.633 79.2221 181.266 80.2117C178.639 87.1671 175.759 94.0376 173.753 101.219C172.991 103.962 173.471 105.573 176.747 106.195C178.95 106.619 181.125 107.185 183.384 107.072C184.655 107.015 186.039 107.722 186.096 108.542C186.208 109.984 184.627 109.871 183.525 109.928C182.283 109.984 181.04 109.984 179.797 110.012L157.401 110.012C157.344 110.239 157.316 110.465 157.26 110.663C158.954 111.822 160.621 112.981 162.4 114.169C160.536 115.469 158.361 114.819 156.78 116.063C152.204 116.487 147.657 116.883 143.082 117.307C130.74 117.42 118.398 117.533 106.056 117.646C93.2055 117.59 80.3551 117.533 67.5047 117.505C66.9964 117.505 66.488 117.901 65.9796 118.127C65.556 118.127 65.1323 118.127 64.7087 118.127C64.3416 118.07 64.0026 118.014 63.6355 117.957C56.01 116.911 48.3562 117.448 40.7025 117.561C29.01 117.731 17.4588 117.561 6.75485 111.935L6.7831 111.935ZM13.7025 109.306C12.8553 109.475 11.8668 109.249 12.1492 110.323C12.6011 112.048 13.7025 113.264 15.5666 113.603C16.2726 113.745 16.5833 113.32 16.5833 112.67C16.5268 110.634 14.691 110.295 13.7025 109.306ZM15.1994 103.736C14.3804 104.725 12.5446 105.036 12.121 106.874C11.895 107.892 12.7988 107.977 13.3636 107.835C14.8887 107.468 16.0749 106.535 16.555 105.008C16.7527 104.386 16.6115 103.622 15.1994 103.707L15.1994 103.736Z" fill="#F9FCFB"/>
<path d="M107.242 131.105C109.586 139.163 111.902 147.249 114.331 155.279C116.449 162.291 118.031 169.5 120.177 176.512C121.9 182.111 123.566 187.794 125.148 193.42C127.181 200.63 129.469 207.84 130.938 215.191C131.757 219.319 128.311 216.096 127.153 216.972C122.945 215.276 119.838 212.42 117.72 208.349C110.518 194.495 103.175 180.725 95.8886 166.928C94.4482 164.072 93.4879 160.933 91.172 158.558C90.6637 157.032 90.8896 154.261 88.3195 155.25C84.8739 156.579 81.4566 155.788 78.0392 156.099C76.4294 156.24 75.5821 155.279 74.9043 154.006C74.9043 149.238 77.239 146.74 81.9085 146.514C81.9085 146.514 82.1344 146.457 82.2474 146.457C83.1794 146.401 84.1679 147.051 85.1564 146.118C81.4566 139.021 77.785 131.981 74.0853 124.941C74.9608 123.669 76.3164 124.093 77.5026 124.064C80.9765 124.008 84.4785 124.262 87.9524 123.98C95.5214 123.386 102.243 124.771 107.214 131.105L107.242 131.105Z" fill="#F9FBFB"/>
<path d="M74.1135 124.913C77.785 131.953 81.4848 139.021 85.1846 146.09C84.1679 146.995 83.1794 146.373 82.2756 146.429C80.1292 145.496 77.8698 146.203 75.6951 145.949C74.1135 142.838 72.6731 139.643 70.9503 136.618C67.5612 130.624 62.647 127.175 55.4451 127.288C45.8709 127.429 36.3249 127.231 26.7506 127.344C18.4473 127.457 10.7371 125.309 3.36574 121.746C1.89713 121.039 0.146084 120.219 0.0613561 118.24C-0.0516145 116.148 1.8124 115.582 3.22453 114.706C4.52369 113.914 6.33122 113.745 6.7831 111.879C17.487 117.533 29.0383 117.675 40.7307 117.505C48.3562 117.392 56.0382 116.855 63.6637 117.901C52.1972 117.901 40.7307 117.901 29.2925 117.901C29.5466 118.551 29.8291 118.721 30.0833 118.721C40.7872 118.721 51.4912 118.721 62.1951 118.721C63.0989 118.721 64.0026 118.721 64.7369 118.042C65.1606 118.042 65.5842 118.042 66.0079 118.042C69.0581 119.88 72.0518 121.803 74.1135 124.856L74.1135 124.913Z" fill="#19218B"/>
<path d="M95.9168 166.928C103.203 180.725 110.547 194.523 117.748 208.349C119.867 212.449 122.973 215.276 127.181 216.973C125.628 216.973 125.261 217.906 125.543 219.234C125.741 220.224 126.023 221.185 126.334 222.175C126.758 223.56 127.69 225.257 126.73 226.359C125.543 227.688 123.764 226.557 122.295 226.162C118.229 225.059 115.715 222.09 113.851 218.556C105.915 203.542 97.9221 188.529 90.1553 173.431C88.4608 170.123 86.8227 167.917 82.7275 169.444C81.7108 169.84 80.4964 169.67 79.3949 169.784C77.5874 169.784 75.7798 169.783 74.0006 169.699C72.1648 169.642 70.9504 168.794 70.8939 166.871C70.8374 164.157 70.8656 161.443 70.8939 158.728C70.8939 157.626 71.4587 156.778 72.4755 156.325C73.6899 155.816 74.396 156.438 74.9043 157.456C74.9891 159.831 76.5142 160.34 78.5476 160.397C82.5863 160.538 86.5403 159.633 90.5507 159.407C91.6804 160.623 92.6972 161.952 93.0643 163.62C93.4315 165.26 94.3353 166.391 95.9451 166.928L95.9168 166.928Z" fill="#18218C"/>
<path d="M143.082 117.335C147.657 116.911 152.204 116.515 156.78 116.091C158.248 117.25 159.745 118.381 161.214 119.54C166.128 126.241 171.014 132.942 175.928 139.643C174.234 140.209 175.307 141.255 175.561 142.075C176.013 143.573 176.662 145.015 177.058 146.542C177.369 147.73 178.837 149.2 177.114 150.105C175.617 150.896 173.782 150.783 172.398 149.511C171.325 148.521 170.364 147.418 169.489 146.259C165.337 140.831 161.185 135.374 157.119 129.86C154.859 126.779 152.12 125.224 148.194 125.93C146.104 126.298 143.957 126.128 141.811 126.213C141.274 126.043 140.71 125.704 140.201 125.789C132.124 126.892 124.018 125.987 115.913 126.27C113.879 126.326 111.846 126.213 109.84 126.27C106.931 126.383 107.468 124.121 107.214 122.481C106.875 120.332 108.626 120.869 109.699 120.841C112.749 120.756 115.8 120.898 118.822 120.785C121.533 120.7 124.301 121.265 126.984 119.654L108.457 119.654C108.457 119.371 108.457 119.088 108.457 118.777C115.291 118.777 122.098 118.805 128.932 118.777C131.503 118.777 134.299 117.759 136.586 118.494C139.891 119.569 142.602 119.06 145.68 117.561C144.664 117.476 143.873 117.392 143.11 117.307L143.082 117.335Z" fill="#18208D"/>
<path d="M74.1135 124.912C72.0518 121.887 69.0581 119.965 66.0079 118.098C66.5162 117.872 67.0246 117.476 67.5047 117.476C80.3551 117.476 93.2055 117.561 106.056 117.618C106.338 120.7 105.745 123.838 106.847 126.835C106.847 127.005 106.847 127.146 106.903 127.316C107.016 128.56 107.129 129.804 107.242 131.048C102.271 124.743 95.5496 123.329 87.9806 123.923C84.5068 124.206 81.0047 123.923 77.5309 124.008C76.3447 124.008 75.0173 123.612 74.1135 124.884L74.1135 124.912Z" fill="#81AFF6"/>
<path d="M175.928 139.643C171.014 132.942 166.128 126.241 161.214 119.54C162.287 118.381 163.388 117.448 165.168 117.505C168.133 117.618 171.099 117.618 174.064 117.674C176.437 124.121 178.837 130.567 181.153 137.07C181.548 138.145 182.876 139.502 181.859 140.407C180.842 141.311 179.091 140.944 177.679 140.633C177.058 140.491 176.521 140.011 175.928 139.671L175.928 139.643Z" fill="#F3F8F9"/>
<path d="M85.1564 70.5699C83.3771 75.0937 80.9765 79.2783 78.4346 83.4062C78.83 81.314 77.9827 80.6637 75.8645 80.7202C71.2045 80.8616 70.4137 79.9568 70.4137 75.3199C70.4137 73.878 70.5267 72.4077 70.4137 70.9657C70.1878 68.1666 71.148 66.4137 74.1417 66.1309C74.3677 66.3006 74.6219 66.4702 74.8478 66.6399C74.5654 69.8065 75.921 71.2485 79.1407 70.9657C81.1459 70.7961 83.1511 70.7113 85.1564 70.5699Z" fill="#17218E"/>
<path d="M174.092 117.674C171.127 117.618 168.162 117.618 165.196 117.505C163.445 117.42 162.315 118.381 161.242 119.541C159.773 118.381 158.277 117.25 156.808 116.091C158.361 114.819 160.536 115.497 162.428 114.197C160.649 112.981 158.983 111.822 157.288 110.691C157.345 110.465 157.373 110.238 157.429 110.041L179.826 110.041C179.346 110.323 178.894 110.663 178.357 110.86C175.081 112.123 173.659 114.404 174.092 117.703L174.092 117.674Z" fill="#7CADF7"/>
<path d="M106.847 126.892C105.745 123.894 106.338 120.756 106.056 117.674C118.398 117.561 130.74 117.448 143.082 117.335C143.873 117.42 144.635 117.476 145.652 117.589C142.574 119.088 139.862 119.569 136.558 118.522C134.27 117.787 131.474 118.777 128.904 118.805C122.069 118.862 115.263 118.805 108.428 118.805C108.428 119.088 108.428 119.371 108.428 119.682L126.955 119.682C124.301 121.293 121.505 120.728 118.793 120.813C115.743 120.926 112.721 120.813 109.671 120.869C108.57 120.869 106.847 120.36 107.186 122.509C107.44 124.149 106.903 126.411 109.812 126.298C111.846 126.213 113.879 126.354 115.884 126.298C123.99 126.015 132.096 126.92 140.173 125.817C140.681 125.761 141.246 126.1 141.783 126.241C138.846 127.203 135.824 126.835 132.858 126.891C124.188 126.892 115.517 126.892 106.847 126.892Z" fill="#1A2581"/>
<path d="M74.8478 157.455C74.3394 156.438 73.6334 155.816 72.4189 156.324C71.4022 156.777 70.8373 157.625 70.8373 158.728C70.8091 161.442 70.7809 164.156 70.8373 166.871C70.8938 168.822 72.1083 169.67 73.944 169.698C75.7516 169.755 77.5591 169.755 79.3384 169.783C77.5026 170.688 75.4126 170.377 73.4639 170.886C71.5434 171.394 70.2725 169.528 70.216 167.464C70.1313 164.411 70.216 161.386 70.216 158.332C70.216 157.258 70.5267 156.127 71.4587 155.702C74.3112 154.43 74.3959 152.055 74.2265 149.51C74.1417 148.069 74.4242 146.824 75.7233 145.976C77.9262 146.231 80.1856 145.524 82.3038 146.457C82.1909 146.457 82.0779 146.513 81.9649 146.513C77.3143 146.74 74.9796 149.237 74.9608 154.006C74.9608 155.165 74.9043 156.296 74.876 157.455L74.8478 157.455Z" fill="#406BBD"/>
<path d="M74.8196 66.6118C74.5936 66.4422 74.3395 66.2725 74.1135 66.1029C74.1135 63.9823 74.17 61.8901 74.1983 59.7695C74.1983 58.4972 74.1983 57.2532 75.9493 57.1401C74.2547 59.6282 75.1585 62.4556 74.9891 65.1133C74.9326 65.6222 74.9043 66.1029 74.8478 66.6118L74.8196 66.6118Z" fill="#406BBD"/>
<path d="M64.7088 118.099C63.9745 118.777 63.0707 118.777 62.1669 118.777C51.463 118.777 40.759 118.777 30.0551 118.777C29.7726 118.777 29.4902 118.608 29.2643 117.957C40.7308 117.957 52.1973 117.957 63.6355 117.957C64.0027 118.014 64.3416 118.07 64.7088 118.127L64.7088 118.099Z" fill="#0D147F"/>
<path d="M74.8478 157.456C74.8478 156.297 74.9043 155.166 74.9326 154.006C75.6104 155.25 76.4577 156.24 78.0675 156.099C81.4849 155.788 84.9022 156.579 88.3478 155.25C90.9179 154.261 90.6919 157.032 91.2003 158.558C90.9744 158.841 90.7484 159.124 90.5225 159.407C86.512 159.633 82.5581 160.538 78.5194 160.396C76.4859 160.311 74.9891 159.802 74.8761 157.456L74.8478 157.456Z" fill="#7FAEF2"/>
<path d="M90.4943 159.407C90.7202 159.124 90.9461 158.841 91.1721 158.559C93.488 160.905 94.4765 164.044 95.8886 166.928C94.2505 166.419 93.375 165.288 93.0079 163.62C92.6125 161.952 91.624 160.623 90.4943 159.407Z" fill="#2C2D77"/>
</svg>
